<?xml version="1.0" encoding="UTF-8"?><svg id="Layer_1" xmlns="http://www.w3.org/2000/svg" viewBox="0 0 426.2 80"><defs><style>.cls-1{fill:#fff;}.cls-2{fill:#de5a19;}.cls-3{fill:#838383;}</style></defs><path class="cls-2" d="m76.48,23.6v5.91h-2.53v20.24h2.53v5.98h-14.54v-5.98h2.62v-18.08h-.23c-.09.52-.2,1.09-.32,1.7-.12.61-.25,1.2-.37,1.77-.12.57-.25,1.09-.37,1.56-.12.48-.21.85-.28,1.13l-4.83,17.89h-9.61l-5.15-18.35c-.06-.18-.14-.48-.23-.9-.09-.41-.18-.88-.28-1.4-.09-.52-.18-1.07-.28-1.66-.09-.58-.15-1.17-.18-1.75h-.18v18.12h2.62v5.93h-12.47v-5.93h2.48v-20.29h-2.44v-5.93h17.43l4.65,17.2,4.42-17.2h17.52C70.2,9.68,56.24,0,40,0,17.95,0,.06,17.85,0,39.89c0-2.61.45-4.96,1.33-7.04.89-2.1,2.02-3.88,3.4-5.34,1.38-1.46,2.89-2.57,4.53-3.33,1.64-.77,3.21-1.15,4.71-1.15,1.13,0,2.12.14,2.97.41.84.28,1.56.59,2.14.94.58.35,1.04.71,1.36,1.06.32.35.53.59.62.71l1.06-2.58h7.22v13.06h-8.23c-.03-.74-.15-1.46-.37-2.16-.21-.71-.51-1.33-.9-1.86-.38-.54-.87-.97-1.47-1.29-.6-.32-1.31-.48-2.14-.48s-1.58.24-2.25.71c-.67.48-1.25,1.13-1.72,1.96-.48.83-.84,1.79-1.1,2.9-.26,1.1-.39,2.28-.39,3.54,0,1.13.15,2.22.44,3.27.29,1.04.72,1.96,1.29,2.76.57.8,1.26,1.43,2.09,1.91s1.79.71,2.9.71c.95,0,1.85-.21,2.71-.64.86-.43,1.61-.91,2.25-1.45.64-.54,1.17-1.04,1.59-1.52s.67-.77.76-.9l5.38,5.89c-.8.86-1.69,1.68-2.67,2.46-.98.78-2.06,1.47-3.22,2.07-1.17.6-2.42,1.07-3.77,1.43-1.35.35-2.78.53-4.28.53-2.45,0-4.68-.38-6.67-1.13-1.99-.75-3.7-1.84-5.11-3.27-1.41-1.43-2.51-3.16-3.29-5.2C.39,44.84,0,42.54,0,39.97c0,0,0,.02,0,.03,0,22.09,17.91,40,40,40s40-17.91,40-40c0-5.85-1.27-11.4-3.52-16.4Z"/><path class="cls-1" d="m0,39.95s0,.01,0,.02c0-.03,0-.06,0-.08,0,.02,0,.04,0,.07Z"/><path class="cls-1" d="m76.48,23.58h0s0,.01,0,.02v-.02Z"/><path class="cls-3" d="m134.11,49.98c-.8.86-1.69,1.68-2.67,2.46-.98.78-2.06,1.47-3.22,2.07-1.17.6-2.42,1.07-3.77,1.43-1.35.35-2.78.53-4.28.53-2.45,0-4.68-.38-6.67-1.13-1.99-.75-3.7-1.84-5.11-3.27-1.41-1.43-2.51-3.16-3.29-5.2-.78-2.04-1.17-4.35-1.17-6.92s.44-5.01,1.33-7.11c.89-2.1,2.02-3.88,3.4-5.34,1.38-1.46,2.89-2.57,4.53-3.33,1.64-.77,3.21-1.15,4.71-1.15,1.13,0,2.12.14,2.97.41.84.28,1.56.59,2.14.94.58.35,1.04.71,1.36,1.06.32.35.53.59.62.71l1.06-2.58h7.22v13.06h-8.23c-.03-.74-.15-1.46-.37-2.16-.21-.71-.51-1.33-.9-1.86-.38-.54-.87-.97-1.47-1.29-.6-.32-1.31-.48-2.14-.48s-1.58.24-2.25.71c-.67.48-1.25,1.13-1.72,1.96-.48.83-.84,1.79-1.1,2.9-.26,1.1-.39,2.28-.39,3.54,0,1.13.15,2.22.44,3.27.29,1.04.72,1.96,1.29,2.76.57.8,1.26,1.43,2.09,1.91s1.79.71,2.9.71c.95,0,1.85-.21,2.71-.64.86-.43,1.61-.91,2.25-1.45.64-.54,1.17-1.04,1.59-1.52s.67-.77.76-.9l5.38,5.89Z"/><path class="cls-3" d="m136.45,34.66c.46-.28,1.04-.6,1.75-.97.71-.37,1.5-.73,2.37-1.08.87-.35,1.81-.64,2.81-.87,1-.23,2.03-.35,3.1-.35,1.38,0,2.81.15,4.28.44,1.47.29,2.81.8,4.02,1.52,1.21.72,2.21,1.69,2.99,2.92.78,1.23,1.17,2.76,1.17,4.6v8.97h2.76v5.89h-9.84l-1.1-2.07c-.43.58-.91,1.07-1.45,1.45-.54.38-1.09.68-1.66.9-.57.21-1.13.37-1.68.46-.55.09-1.03.14-1.43.14-1.1,0-2.19-.15-3.27-.46-1.07-.31-2.04-.77-2.9-1.38-.86-.61-1.56-1.4-2.09-2.37-.54-.97-.81-2.12-.81-3.47s.25-2.45.76-3.5c.51-1.04,1.2-1.93,2.07-2.67.87-.74,1.89-1.3,3.06-1.7,1.17-.4,2.39-.6,3.68-.6.67,0,1.28.07,1.82.21.54.14,1,.3,1.38.48.38.18.69.37.92.55s.38.31.44.37v-1.61c0-1.04-.41-1.73-1.24-2.07-.83-.34-1.87-.51-3.13-.51-1.38,0-2.65.23-3.79.69s-2.17.94-3.06,1.43l-1.93-5.34Zm10.21,15.96c.71,0,1.32-.17,1.84-.51.52-.34.89-.67,1.1-1.01v-1.75c-.03-.06-.1-.16-.21-.3-.11-.14-.27-.28-.48-.44-.21-.15-.48-.29-.81-.41-.32-.12-.73-.18-1.22-.18-.92,0-1.6.23-2.02.69-.43.46-.64,1.04-.64,1.75,0,.64.23,1.17.69,1.56s1.04.6,1.75.6Z"/><path class="cls-3" d="m176.56,55.73h-13.02v-6.03h2.02v-10.99h-1.98v-5.98h8.65l1.38,2.94c.31-.55.63-1.07.97-1.56.34-.49.77-.93,1.29-1.31.52-.38,1.17-.68,1.93-.9.77-.21,1.75-.32,2.94-.32v8.28c-2.09,0-3.69.35-4.81,1.04-1.12.69-1.68,2.05-1.68,4.07v4.74h2.3v6.03Z"/><path class="cls-3" d="m182.86,55.73v-5.98h1.93v-22.49h-1.93v-6.03h11.13v13.29c.25-.31.59-.59,1.03-.85.44-.26.94-.49,1.5-.69.55-.2,1.13-.35,1.75-.46.61-.11,1.2-.16,1.75-.16,1.78,0,3.33.34,4.65,1.01,1.32.67,2.42,1.57,3.29,2.69.87,1.12,1.53,2.41,1.98,3.86.44,1.46.67,2.95.67,4.48-.03,1.78-.3,3.4-.81,4.85-.51,1.46-1.22,2.7-2.14,3.73-.92,1.03-2.02,1.83-3.31,2.39-1.29.57-2.75.85-4.37.85-.89,0-1.64-.05-2.25-.16-.61-.11-1.15-.26-1.61-.46s-.87-.42-1.22-.67c-.35-.25-.68-.51-.99-.78l-.69,1.56h-10.35Zm17.62-11.22c0-.67-.08-1.36-.23-2.05-.15-.69-.38-1.29-.67-1.82-.29-.52-.64-.95-1.06-1.29-.41-.34-.87-.51-1.36-.51-.86,0-1.62.48-2.28,1.43-.66.95-.99,2.25-.99,3.91,0,.86.08,1.66.23,2.39.15.74.38,1.38.67,1.93.29.55.64.98,1.06,1.29.41.31.87.46,1.36.46.98,0,1.77-.52,2.37-1.56.6-1.04.9-2.44.9-4.19Z"/><path class="cls-3" d="m224.95,56.33c-1.66,0-3.26-.25-4.81-.76-1.55-.51-2.92-1.26-4.12-2.28-1.2-1.01-2.15-2.28-2.85-3.82-.71-1.53-1.06-3.31-1.06-5.34s.36-3.64,1.08-5.13c.72-1.49,1.67-2.74,2.85-3.75,1.18-1.01,2.53-1.78,4.05-2.3,1.52-.52,3.06-.78,4.62-.78,1.81,0,3.5.28,5.06.85,1.56.57,2.92,1.38,4.07,2.44,1.15,1.06,2.05,2.35,2.69,3.86.64,1.52.97,3.24.97,5.17s-.33,3.58-.99,5.04c-.66,1.46-1.56,2.69-2.69,3.7s-2.46,1.78-3.98,2.3c-1.52.52-3.15.78-4.9.78Zm0-5.89c.49,0,.93-.15,1.31-.46.38-.31.71-.74.99-1.29.28-.55.48-1.2.62-1.96.14-.75.21-1.56.21-2.42s-.08-1.66-.23-2.42c-.15-.75-.37-1.4-.64-1.95-.28-.55-.62-.99-1.04-1.31-.41-.32-.9-.48-1.45-.48-.46,0-.88.15-1.27.46-.38.31-.71.74-.99,1.29-.28.55-.5,1.2-.67,1.93-.17.74-.25,1.52-.25,2.35,0,1.9.32,3.42.97,4.55.64,1.13,1.46,1.7,2.44,1.7Z"/><path class="cls-3" d="m253.34,55.73h-14.17v-6.03h1.93v-10.99h-1.93v-5.98h9.8l1.06,2.85c.8-1.07,1.73-1.96,2.78-2.65s2.32-1.04,3.79-1.04c1.78,0,3.21.3,4.3.9,1.09.6,1.93,1.38,2.53,2.35s1,2.05,1.2,3.27c.2,1.21.3,2.42.3,3.61v7.68h2.16v6.03h-11.59v-12.56c0-.4,0-.84-.02-1.33-.02-.49-.1-.95-.25-1.38-.15-.43-.41-.8-.76-1.1-.35-.31-.87-.46-1.54-.46-.58,0-1.07.13-1.45.39-.38.26-.68.6-.9,1.01s-.36.87-.44,1.38c-.08.51-.12,1-.12,1.49v6.53h3.31v6.03Z"/><path class="cls-2" d="m300.85,31.67c-.09.52-.2,1.09-.32,1.7-.12.61-.25,1.2-.37,1.77-.12.57-.25,1.09-.37,1.56-.12.48-.21.85-.28,1.13l-4.83,17.89h-9.61l-5.15-18.35c-.06-.18-.14-.48-.23-.9s-.18-.88-.28-1.4c-.09-.52-.18-1.07-.28-1.66-.09-.58-.15-1.17-.18-1.75h-.18v18.12h2.62v5.93h-12.47v-5.93h2.48v-20.29h-2.44v-5.93h17.43l4.65,17.2,4.42-17.2h17.53v5.93h-2.53v20.24h2.53v5.98h-14.54v-5.98h2.62v-18.08h-.23Z"/><path class="cls-2" d="m315.8,34.66c.46-.28,1.04-.6,1.75-.97.71-.37,1.5-.73,2.37-1.08.87-.35,1.81-.64,2.81-.87,1-.23,2.03-.35,3.1-.35,1.38,0,2.81.15,4.28.44,1.47.29,2.81.8,4.03,1.52,1.21.72,2.21,1.69,2.99,2.92.78,1.23,1.17,2.76,1.17,4.6v8.97h2.76v5.89h-9.84l-1.1-2.07c-.43.58-.91,1.07-1.45,1.45-.54.38-1.09.68-1.66.9-.57.21-1.13.37-1.68.46-.55.09-1.03.14-1.43.14-1.1,0-2.19-.15-3.27-.46-1.07-.31-2.04-.77-2.9-1.38s-1.56-1.4-2.09-2.37c-.54-.97-.8-2.12-.8-3.47s.25-2.45.76-3.5c.51-1.04,1.2-1.93,2.07-2.67.87-.74,1.89-1.3,3.06-1.7,1.17-.4,2.39-.6,3.68-.6.67,0,1.28.07,1.82.21.54.14,1,.3,1.38.48.38.18.69.37.92.55s.38.31.44.37v-1.61c0-1.04-.41-1.73-1.24-2.07s-1.87-.51-3.13-.51c-1.38,0-2.65.23-3.79.69-1.15.46-2.17.94-3.06,1.43l-1.93-5.34Zm10.21,15.96c.71,0,1.32-.17,1.84-.51.52-.34.89-.67,1.1-1.01v-1.75c-.03-.06-.1-.16-.21-.3-.11-.14-.27-.28-.48-.44-.21-.15-.48-.29-.8-.41-.32-.12-.73-.18-1.22-.18-.92,0-1.59.23-2.02.69-.43.46-.64,1.04-.64,1.75,0,.64.23,1.17.69,1.56s1.04.6,1.75.6Z"/><path class="cls-2" d="m347.63,38.71h-1.93v-5.98h10.67v19.78c0,1.44-.15,2.91-.46,4.42-.31,1.5-.95,2.88-1.93,4.14-.98,1.26-2.39,2.28-4.23,3.08-1.84.8-4.29,1.2-7.36,1.2v-6.16c1.32,0,2.34-.25,3.06-.74.72-.49,1.24-1.08,1.56-1.77.32-.69.51-1.42.55-2.18.05-.77.07-1.43.07-1.98v-13.8Zm-.64-12.7c0-.52.11-1.06.32-1.61.21-.55.53-1.06.94-1.52.41-.46.94-.83,1.56-1.13.63-.29,1.34-.44,2.14-.44s1.51.15,2.14.44c.63.29,1.16.67,1.59,1.13.43.46.76.97.99,1.52.23.55.35,1.09.35,1.61,0,1.29-.43,2.38-1.29,3.29-.86.9-2.12,1.36-3.77,1.36-.74,0-1.4-.14-2-.41s-1.12-.64-1.56-1.08c-.45-.44-.79-.94-1.04-1.5-.25-.55-.37-1.1-.37-1.66Z"/><path class="cls-2" d="m371.64,56.33c-1.66,0-3.26-.25-4.81-.76-1.55-.51-2.92-1.26-4.12-2.28-1.2-1.01-2.15-2.28-2.85-3.82-.71-1.53-1.06-3.31-1.06-5.34s.36-3.64,1.08-5.13c.72-1.49,1.67-2.74,2.85-3.75,1.18-1.01,2.53-1.78,4.05-2.3,1.52-.52,3.06-.78,4.62-.78,1.81,0,3.5.28,5.06.85,1.56.57,2.92,1.38,4.07,2.44,1.15,1.06,2.05,2.35,2.69,3.86.64,1.52.97,3.24.97,5.17s-.33,3.58-.99,5.04c-.66,1.46-1.56,2.69-2.69,3.7s-2.46,1.78-3.98,2.3c-1.52.52-3.15.78-4.9.78Zm0-5.89c.49,0,.93-.15,1.31-.46.38-.31.71-.74.99-1.29.28-.55.48-1.2.62-1.96.14-.75.21-1.56.21-2.42s-.08-1.66-.23-2.42c-.15-.75-.37-1.4-.64-1.95-.28-.55-.62-.99-1.04-1.31-.41-.32-.9-.48-1.45-.48-.46,0-.88.15-1.27.46-.38.31-.71.74-.99,1.29-.28.55-.5,1.2-.67,1.93-.17.74-.25,1.52-.25,2.35,0,1.9.32,3.42.97,4.55.64,1.13,1.46,1.7,2.44,1.7Z"/><path class="cls-2" d="m398.88,55.73h-13.02v-6.03h2.02v-10.99h-1.98v-5.98h8.65l1.38,2.94c.31-.55.63-1.07.97-1.56.34-.49.77-.93,1.29-1.31.52-.38,1.17-.68,1.93-.9.77-.21,1.75-.32,2.94-.32v8.28c-2.08,0-3.69.35-4.81,1.04-1.12.69-1.68,2.05-1.68,4.07v4.74h2.3v6.03Z"/><path class="cls-2" d="m404.44,55.73v-8.28h6.16c0,.61.19,1.12.58,1.52.38.4.84.71,1.36.94.52.23,1.06.39,1.61.48.55.09,1,.14,1.33.14.46,0,.91-.1,1.36-.3.44-.2.67-.62.67-1.27,0-.43-.31-.77-.94-1.03s-1.43-.51-2.39-.76c-.97-.25-2-.54-3.1-.87-1.1-.34-2.14-.8-3.11-1.4-.97-.6-1.76-1.38-2.39-2.35-.63-.97-.94-2.2-.94-3.7,0-1.17.27-2.17.8-3.01.54-.84,1.21-1.53,2.02-2.07.81-.54,1.69-.94,2.62-1.2.93-.26,1.82-.39,2.64-.39,1.56,0,2.97.35,4.23,1.06,1.26.71,2.13,1.55,2.62,2.53l.37-3.04h5.66v8.28h-5.98c0-.49-.14-.94-.41-1.36s-.64-.78-1.08-1.1c-.45-.32-.94-.57-1.5-.76s-1.12-.28-1.7-.28c-.49,0-.91.13-1.26.39-.35.26-.53.68-.53,1.27,0,.52.32.94.97,1.24.64.31,1.45.61,2.42.9.97.29,2.02.61,3.15.97,1.13.35,2.18.82,3.15,1.4.97.58,1.77,1.33,2.42,2.23.64.91.97,2.06.97,3.47,0,1.07-.24,2.04-.71,2.9-.48.86-1.1,1.59-1.89,2.18-.78.6-1.69,1.05-2.74,1.36-1.04.31-2.12.46-3.22.46-1.66,0-3.1-.34-4.35-1.01-1.24-.67-2.14-1.46-2.69-2.35l-.41,2.81h-5.75Z"/></svg>